<?xml version="1.0" standalone="no"?>
<!DOCTYPE svg PUBLIC "-//W3C//DTD SVG 20010904//EN"
 "http://www.w3.org/TR/2001/REC-SVG-20010904/DTD/svg10.dtd">
<svg version="1.0" xmlns="http://www.w3.org/2000/svg"
 width="214.000000pt" height="214.000000pt" viewBox="0 0 214.000000 214.000000"
 preserveAspectRatio="xMidYMid meet">
<metadata>
Created by potrace 1.11, written by Peter Selinger 2001-2013
</metadata>
<g transform="translate(0.000000,214.000000) scale(0.100000,-0.100000)"
fill="#000000" stroke="none">
<path d="M0 1070 l0 -1070 1070 0 1070 0 0 1070 0 1070 -1070 0 -1070 0 0
-1070z m1881 410 l-93 -93 -109 109 -109 109 92 92 93 93 109 -109 109 -109
-92 -92z m-384 -2 c13 -12 23 -26 23 -32 0 -6 -158 -169 -352 -363 l-352 -352
24 -26 c13 -14 28 -25 34 -25 6 0 169 159 363 352 l353 353 45 -45 c25 -24 45
-48 45 -53 0 -5 -208 -216 -463 -470 l-463 -462 -129 -59 c-72 -33 -158 -73
-193 -89 -34 -16 -65 -28 -67 -25 -3 3 33 90 80 194 l86 189 467 468 c257 257
469 467 471 467 3 0 15 -10 28 -22z"/>
<path d="M673 587 c-36 -36 -120 -194 -110 -204 12 -11 177 80 211 115 41 43
40 48 -14 54 -20 2 -26 10 -28 33 -5 47 -15 48 -59 2z"/>
</g>
</svg>
